<svg width="2182" height="655" viewBox="0 0 2182 655" fill="none" xmlns="http://www.w3.org/2000/svg">
<path d="M552.167 70.1136L553.1 597.483C553.127 602.724 557.5 606.943 562.777 606.664L1070.49 580.833C1075.44 580.6 1079.28 576.483 1079.21 571.536L1072.87 88.5148C1072.8 83.61 1068.9 79.6362 1064.03 79.4485L561.728 60.8894C556.528 60.7062 552.181 64.8723 552.208 70.113L552.167 70.1136Z" fill="#E9E9E8"/>
<path d="M1626.12 70.1361L1628.46 580.38C1628.57 585.62 1624.31 589.952 1619.03 589.812L1121.2 579.999C1116.25 579.897 1112.3 575.881 1112.24 570.935L1111.67 87.6696C1111.61 82.7648 1115.41 78.6897 1120.27 78.3743L1616.36 61.1658C1621.55 60.846 1626.01 64.8965 1626.12 70.1361Z" fill="#E9E9E8"/>
<path d="M2178.06 16.0512L2181.78 630.89C2181.89 636.423 2177.63 640.965 2172.35 640.825L1674.04 593.995C1669.09 593.85 1665.13 589.626 1665.07 584.427L1664.06 67.3735C1663.99 62.2172 1667.79 57.8905 1672.65 57.5751L2168.3 6.66159C2173.49 6.29987 2177.95 10.6019 2178.06 16.0931L2178.06 16.0512Z" fill="#E9E9E8"/>
<path d="M-4.11362 17.211L8.67851 659.184C8.7115 664.886 13.088 669.399 18.3657 669.12L515.26 607.707C520.202 607.433 524.042 602.98 523.971 597.614L511.205 66.0814C511.135 60.7574 507.222 56.4482 502.357 56.2605L5.3958 7.2328C0.195908 7.04953 -4.14605 11.551 -4.11362 17.211Z" fill="#E9E9E8"/>
</svg>
