<svg width="49" height="30" viewBox="0 0 49 30" fill="none" xmlns="http://www.w3.org/2000/svg">
<path d="M48.7669 14.0039C48.7669 14.0039 48.534 13.9941 48.0681 13.9746C47.6022 13.9355 47.0199 13.833 46.3211 13.667C45.6223 13.501 44.8555 13.2422 44.0209 12.8906C43.1862 12.5586 42.3903 12.0898 41.6333 11.4844C40.9927 10.957 40.5414 10.3223 40.2793 9.58008C40.0173 8.83789 39.7892 8.02734 39.5951 7.14844C39.3233 5.99609 38.9351 4.79492 38.4304 3.54492C37.9257 2.29492 36.9358 1.11328 35.4605 0L35.1693 0.380859C36.5864 1.43555 37.5327 2.56836 38.0082 3.7793C38.4838 4.99023 38.8575 6.15234 39.1292 7.26562C39.3428 8.14453 39.5902 8.98438 39.8717 9.78516C40.1532 10.5859 40.6433 11.2695 41.3421 11.8359C42.7203 12.9492 44.147 13.6621 45.6223 13.9746C47.0975 14.2871 48.0584 14.4531 48.5048 14.4727V14.7656L0 14.5833V15.0521L48.5048 15.2344V15.5273C48.039 15.5469 47.0733 15.7129 45.6077 16.0254C44.1422 16.3379 42.7203 17.0508 41.3421 18.1641C40.6433 18.7305 40.1532 19.4141 39.8717 20.2148C39.5902 21.0156 39.3428 21.8555 39.1292 22.7344C38.8575 23.8477 38.4838 25.0098 38.0082 26.2207C37.5327 27.4316 36.5864 28.5645 35.1693 29.6191L35.4605 30C36.9358 28.8867 37.9257 27.7051 38.4304 26.4551C38.9351 25.2051 39.3233 24.0039 39.5951 22.8516C39.8086 21.9727 40.0464 21.1621 40.3085 20.4199C40.5705 19.6777 41.0218 19.043 41.6624 18.5156C42.4 17.9102 43.1862 17.4414 44.0209 17.1094C44.8555 16.7578 45.6223 16.499 46.3211 16.333C47.0199 16.167 47.6022 16.0742 48.0681 16.0547C48.534 16.0156 48.7669 15.9961 48.7669 15.9961H48.9998V14.0332L48.7669 14.0039Z" fill="black"/>
</svg>
