<svg width="852" height="362" viewBox="0 0 852 362" fill="none" xmlns="http://www.w3.org/2000/svg">
<g clip-path="url(#clip0_162_424)">
<path d="M822.541 29.4592C771.978 -21.1029 671.295 -3.66586 590.054 66.8685C585.284 52.6556 577.723 39.9709 567.22 29.4592C519.82 -17.9406 428.385 -5.59153 350.201 54.2368C345.696 45.0766 339.83 36.7379 332.543 29.4592C278.35 -24.7334 166.572 -0.821518 82.8751 82.8746C-0.821449 166.571 -24.7335 278.348 29.4595 332.541C76.8595 379.941 168.294 367.591 246.479 307.763C250.984 316.923 256.849 325.262 264.137 332.541C314.699 383.103 415.382 365.666 496.623 295.131C501.393 309.344 508.955 322.029 519.458 332.541C573.65 386.733 685.428 362.821 769.125 279.125C852.822 195.429 876.734 83.6519 822.541 29.4592Z" stroke="#1D1D1D" stroke-miterlimit="10"/>
</g>
<defs>
<clipPath id="clip0_162_424">
<rect width="852" height="362" fill="white"/>
</clipPath>
</defs>
</svg>
