<svg width="86" height="100" viewBox="0 0 86 100" fill="none" xmlns="http://www.w3.org/2000/svg">
<path d="M22 57H18.5V50H22V57ZM18.5 42.99H15V49.99H18.5V42.98V42.99ZM4.5 39.49V42.99H15V39.49H4.5ZM1 49.99H4.5V42.99H1V49.99ZM4.5 56.99H8V49.99H4.5V56.99ZM8 63.99H11.5V56.99H8V63.99ZM14.99 70.82V74.32H18.49V67.5H14.99V70.82ZM18.49 77.83H21.99V74.33H18.49V77.83ZM11.5 67.5H15V64H11.5V67.5ZM25.5 77.83H22V84.83H25.5V77.83ZM25.5 84.83V88.33H29V84.83H25.5ZM29 91.83V95.33H32.5V88.33H29V91.83ZM25.5 57H22V60.5H25.5V64H29V4.5H25.5V57ZM43 29V4.5H39.5V46.5H43V32.5H50V29H43ZM50 32.5V36H53.5V32.5H50ZM53.5 50H57V36H53.5V50ZM74.5 95.43H78V84.98H74.5V95.43ZM60.5 32.5H57V36H64V32.5H60.5ZM74.5 36H71V39.5H78V36H74.5ZM64 36V39.5H67.5V36H64ZM78 39.52V43.02H81.5V39.52H78ZM81.5 43.02V70.99H85V43.02H81.5ZM77.99 84.99H81.49V70.99H77.99V84.99ZM67.5 53.51H71V39.51H67.5V53.51ZM32.56 95.4V98.9H74.5V95.4H32.56ZM36 1H29V4.5H39.5V1H36Z" fill="#999999"/>
<path d="M22 57H18.5V50H22V57ZM22 57H25.5V4.5H29M22 57V60.5H25.5V64H29V4.5M15 42.99H18.5V42.98V49.99H15V42.99ZM15 42.99H4.5M15 42.99V39.49H4.5V42.99M4.5 42.99V49.99M4.5 42.99H1V49.99H4.5M4.5 49.99H8V56.99M4.5 49.99V56.99H8M8 56.99H11.5V63.99H8V56.99ZM25.5 84.83H22V77.83H25.5V84.83ZM25.5 84.83V88.33H29M25.5 84.83H29V88.33M29 88.33H32.5V95.33H29V91.83V88.33ZM29 4.5V1H36H39.5V4.5M29 4.5H39.5M39.5 4.5H43V29H50V32.5M39.5 4.5V46.5H43V32.5H50M50 32.5V36H53.5M50 32.5H53.5V36M53.5 36H57M53.5 36V50H57V36M57 36V32.5H60.5H64V36M57 36H64M64 36V39.5H67.5V36H64ZM81.5 43.02H78V39.52H81.5V43.02ZM81.5 43.02V70.99H85V43.02H81.5ZM14.99 70.82V74.32H18.49V67.5H14.99V70.82ZM18.49 77.83H21.99V74.33H18.49V77.83ZM11.5 67.5H15V64H11.5V67.5ZM74.5 95.43H78V84.98H74.5V95.43ZM74.5 36H71V39.5H78V36H74.5ZM77.99 84.99H81.49V70.99H77.99V84.99ZM67.5 53.51H71V39.51H67.5V53.51ZM32.56 95.4V98.9H74.5V95.4H32.56Z" stroke="#999999" stroke-width="2" stroke-miterlimit="10"/>
</svg>
