<svg width="23" height="22" viewBox="0 0 23 22" fill="none" xmlns="http://www.w3.org/2000/svg">
<g clip-path="url(#clip0_257_64)">
<g clip-path="url(#clip1_257_64)">
<path d="M11.4109 19.4626C16.1589 19.4626 20.008 15.6136 20.008 10.8656C20.008 6.11757 16.1589 2.26855 11.4109 2.26855C6.66298 2.26855 2.81396 6.11757 2.81396 10.8656C2.81396 15.6136 6.66298 19.4626 11.4109 19.4626Z" stroke="#999999" stroke-width="1.2" stroke-miterlimit="10"/>
<path d="M11.4093 19.4626C13.7833 19.4626 15.7078 15.6136 15.7078 10.8656C15.7078 6.11757 13.7833 2.26855 11.4093 2.26855C9.03534 2.26855 7.11084 6.11757 7.11084 10.8656C7.11084 15.6136 9.03534 19.4626 11.4093 19.4626Z" stroke="#999999" stroke-width="1.2" stroke-miterlimit="10"/>
<path d="M5.49951 17.0449C7.11145 18.6568 9.2607 19.4628 11.4099 19.4628C13.8278 19.4628 15.9771 18.3881 17.3204 17.0449C15.9771 15.4329 13.8278 14.627 11.4099 14.627C8.99205 14.627 7.11145 15.4329 5.49951 17.0449Z" stroke="#999999" stroke-width="1.2" stroke-miterlimit="10"/>
<path d="M5.49951 4.95502C7.11145 3.34308 9.2607 2.53711 11.4099 2.53711C13.8278 2.53711 15.9771 3.61174 17.3204 4.95502C15.9771 6.2983 13.8278 7.10427 11.4099 7.10427C8.99205 7.10427 7.11145 6.2983 5.49951 4.95502Z" stroke="#999999" stroke-width="1.2" stroke-miterlimit="10"/>
<path d="M11.4097 2.53711V19.4625" stroke="#999999" stroke-width="1.2" stroke-miterlimit="10"/>
<path d="M3.08154 10.8657H20.0069" stroke="#999999" stroke-width="1.2" stroke-miterlimit="10"/>
</g>
</g>
<defs>
<clipPath id="clip0_257_64">
<rect width="22" height="22" fill="white" transform="translate(0.544434)"/>
</clipPath>
<clipPath id="clip1_257_64">
<rect width="22" height="22" fill="white" transform="translate(0.544434)"/>
</clipPath>
</defs>
</svg>
