<svg width="225" height="131" viewBox="0 0 225 131" fill="none" xmlns="http://www.w3.org/2000/svg">
<path d="M218.547 65.115C218.547 71.0483 215.641 76.7468 210.289 81.9792C204.935 87.2131 197.162 91.9496 187.517 95.938C168.228 103.914 141.547 108.859 112.049 108.859C82.5518 108.859 55.8703 103.914 36.5817 95.938C26.9362 91.9496 19.1634 87.2131 13.8097 81.9792C8.45762 76.7468 5.55176 71.0483 5.55176 65.115C5.55176 59.1818 8.45762 53.4833 13.8097 48.2509C19.1634 43.017 26.9362 38.2805 36.5817 34.2921C55.8703 26.3162 82.5518 21.3713 112.049 21.3713C141.547 21.3713 168.228 26.3162 187.517 34.2921C197.162 38.2805 204.935 43.017 210.289 48.2509C215.641 53.4833 218.547 59.1818 218.547 65.115Z" stroke="white"/>
<path d="M213.72 39.9854C215.035 45.3086 213.539 51.1151 209.595 57.0917C205.651 63.0689 199.286 69.1708 190.964 75.0415C174.323 86.7808 149.948 97.5337 121.783 104.495C93.6186 111.456 67.041 113.298 46.8472 110.662C36.7487 109.345 28.2735 106.911 21.9987 103.46C15.7246 100.009 11.6956 95.5677 10.3799 90.2445C9.06416 84.9213 10.5603 79.1148 14.5043 73.1382C18.4486 67.161 24.8141 61.0592 33.1359 55.1885C49.7767 43.4491 74.1516 32.6963 102.316 25.7349C130.481 18.7735 157.059 16.9324 177.252 19.5675C187.351 20.8853 195.826 23.319 202.101 26.7703C208.375 30.2214 212.404 34.6622 213.72 39.9854Z" stroke="white"/>
</svg>
