<svg width="90" height="90" viewBox="0 0 90 90" fill="none" xmlns="http://www.w3.org/2000/svg">
<g clip-path="url(#clip0_206_74)">
<path d="M44.997 90C44.2835 90 43.7079 89.4244 43.7079 88.711V1.28905C43.7079 0.575578 44.2835 0 44.997 0C45.7105 0 46.2861 0.575578 46.2861 1.28905V88.711C46.2861 89.4244 45.7105 90 44.997 90Z" fill="#1D1D1D" fill-opacity="0.4"/>
<path d="M88.711 46.2861H1.28905C0.575578 46.2861 0 45.7105 0 44.9971C0 44.2836 0.575578 43.708 1.28905 43.708H88.711C89.4244 43.708 90 44.2836 90 44.9971C90 45.7105 89.4244 46.2861 88.711 46.2861Z" fill="#1D1D1D" fill-opacity="0.4"/>
<path d="M14.0897 77.1994C13.7599 77.1994 13.4301 77.0735 13.1783 76.8217C12.6747 76.318 12.6747 75.5026 13.1783 74.999L74.993 13.1783C75.4966 12.6747 76.312 12.6747 76.8157 13.1783C77.3193 13.682 77.3193 14.4974 76.8157 15.001L15.001 76.8217C14.7492 77.0735 14.4194 77.1994 14.0897 77.1994Z" fill="#1D1D1D" fill-opacity="0.4"/>
<path d="M75.9103 77.1994C75.5806 77.1994 75.2508 77.0735 74.999 76.8217L13.1783 15.001C12.6747 14.4974 12.6747 13.682 13.1783 13.1783C13.682 12.6747 14.4974 12.6747 15.001 13.1783L76.8157 74.993C77.3193 75.4966 77.3193 76.312 76.8157 76.8157C76.5638 77.0675 76.2341 77.1934 75.9043 77.1934L75.9103 77.1994Z" fill="#1D1D1D" fill-opacity="0.4"/>
</g>
<defs>
<clipPath id="clip0_206_74">
<rect width="90" height="90" fill="white"/>
</clipPath>
</defs>
</svg>
