<svg width="17" height="17" viewBox="0 0 17 17" fill="none" xmlns="http://www.w3.org/2000/svg">
<path d="M7.6498 0.999932L1.2598 5.50993C0.969805 5.70993 0.799805 6.03993 0.799805 6.38993V14.4299C0.799805 15.0299 1.2798 15.5099 1.8798 15.5099H5.0098C5.6098 15.5099 6.0898 15.0299 6.0898 14.4299V11.0099C6.0898 10.4099 6.5698 9.92993 7.1698 9.92993H9.3698C9.9698 9.92993 10.4498 10.4099 10.4498 11.0099V14.4299C10.4498 15.0299 10.9298 15.5099 11.5298 15.5099H14.6598C15.2598 15.5099 15.7398 15.0299 15.7398 14.4299V6.38993C15.7398 6.03993 15.5698 5.70993 15.2798 5.50993L8.8998 0.999932C8.5298 0.739932 8.0298 0.739932 7.6498 0.999932Z" stroke="#1D1D1D" stroke-width="1.6" stroke-linecap="round" stroke-linejoin="round"/>
</svg>
